# xmcd CD database file
#
# Track frame offsets:
#	182
#	22585
#	55205
#	82620
#	109855
#	139662
#
# Disc length: 2204 seconds
#
# Revision: 0
# Processed by: cddbd v1.5.2PL0 Copyright (c) Steve Scherf et al.
# Submitted via: CDex 1.70beta2
#
DISCID=39089a06
DTITLE=Conjunto Clave - La Masacre Musical
DYEAR=1994
DGENRE=Salsa
TTITLE0=Sibanicu
TTITLE1=El Cantante
TTITLE2=Bandolera
TTITLE3=Noviecita
TTITLE4=Pescadores De Camaros
TTITLE5=Esa China
EXTD=YEAR: 1994
EXTT0=
EXTT1=
EXTT2=
EXTT3=
EXTT4=
EXTT5=
PLAYORDER=
